<svg xmlns="http://www.w3.org/2000/svg" id="edit_1_" width="25" height="24.874" data-name="edit (1)" viewBox="0 0 25 24.874">
    <defs>
        <style>
            .cls-1{fill:#fff}
        </style>
    </defs>
    <path id="Path_310" d="M23.074 52.359a.623.623 0 0 0-.623.623v5.528a1.87 1.87 0 0 1-1.868 1.868H3.113a1.87 1.87 0 0 1-1.868-1.868V42.285a1.87 1.87 0 0 1 1.868-1.868h5.528a.623.623 0 0 0 0-1.245H3.113A3.117 3.117 0 0 0 0 42.285v16.226a3.117 3.117 0 0 0 3.113 3.113h17.47a3.117 3.117 0 0 0 3.117-3.113v-5.529a.623.623 0 0 0-.623-.623zm0 0" class="cls-1" data-name="Path 310" transform="translate(0 -36.749)"/>
    <path id="Path_311" d="M124.9 1.081a2.8 2.8 0 0 0-3.962 0l-11.105 11.108a.622.622 0 0 0-.16.274l-1.461 5.274a.622.622 0 0 0 .766.766l5.274-1.461a.622.622 0 0 0 .274-.16l11.109-11.108a2.8 2.8 0 0 0 0-3.962zm-13.71 11.513l9.091-9.094 2.932 2.932-9.091 9.091zm-.586 1.175l2.342 2.343-3.24.9zm14.15-8.875l-.66.66-2.932-2.932.661-.66a1.556 1.556 0 0 1 2.2 0l.731.731a1.559 1.559 0 0 1 0 2.201zm0 0" class="cls-1" data-name="Path 311" transform="translate(-101.454 -.261)"/>
</svg>
