<svg xmlns="http://www.w3.org/2000/svg" width="23.723" height="23.723" viewBox="0 0 23.723 23.723">
    <defs>
        <style>
            .cls-1{fill:#3b5998}
        </style>
    </defs>
    <g id="facebook-logo-in-circular-button-outlined-social-symbol">
        <g id="Group_57" data-name="Group 57">
            <path id="Path_292" d="M23.723 11.861a11.861 11.861 0 1 0-11.862 11.862 11.862 11.862 0 0 0 11.862-11.862zm-22.644 0a10.783 10.783 0 1 1 10.782 10.784A10.783 10.783 0 0 1 1.078 11.861z" class="cls-1" data-name="Path 292"/>
            <path id="Path_293" d="M227.465 143.53v-6.846h2.259l.357-2.269h-2.616v-1.138c0-.592.194-1.157 1.044-1.157h1.7v-2.264H227.8c-2.027 0-2.58 1.335-2.58 3.185v1.373h-1.391v2.27h1.391v6.846z" class="cls-1" data-name="Path 293" transform="translate(-215.149 -124.822)"/>
        </g>
    </g>
</svg>
