<svg xmlns="http://www.w3.org/2000/svg" width="23.723" height="23.723" viewBox="0 0 23.723 23.723">
    <defs>
        <style>
            .cls-1{fill:#fe0909}
        </style>
    </defs>
    <g id="social-youtube-circular-button">
        <path id="Path_308" d="M11.861 0a11.861 11.861 0 1 0 11.862 11.861A11.861 11.861 0 0 0 11.861 0zm0 21.869a10.008 10.008 0 1 1 10.008-10.008 10.008 10.008 0 0 1-10.008 10.008z" class="cls-1" data-name="Path 308"/>
        <path id="Path_309" d="M132.024 128l-.471 1.83h-.047l-.494-1.83h-.767l.974 3.035v1.277h.559v-1.361L132.8 128zm2.435 1.995a.958.958 0 0 0-.232-.66.633.633 0 0 0-.536-.27.735.735 0 0 0-.576.27.8.8 0 0 0-.263.639v1.416a.914.914 0 0 0 .266.688.656.656 0 0 0 .557.252c.306 0 .345-.083.523-.245a.89.89 0 0 0 .26-.681v-1.41zm2.157-.927h-.541v2.16a3.113 3.113 0 0 1-.4.457.1.1 0 0 1-.1-.054.279.279 0 0 1-.043-.173v-2.391h-.542v2.623a1.048 1.048 0 0 0 .126.61.446.446 0 0 0 .519-.074 1.683 1.683 0 0 0 .439-.555v.575h.541zm3.246 6.527a2.19 2.19 0 0 0-2.166-2.215h-7.528a2.191 2.191 0 0 0-2.168 2.214v2.052a2.192 2.192 0 0 0 2.167 2.215h7.533a2.191 2.191 0 0 0 2.166-2.215zm-2.985 3.182a.74.74 0 0 1-.582-.235.908.908 0 0 1-.213-.64v-1.274a1.511 1.511 0 0 1 .234-.847.807.807 0 0 1 .6-.232.754.754 0 0 1 .578.212 1.66 1.66 0 0 1 .2.867v.538h-1.051v.717a.628.628 0 0 0 .056.311.2.2 0 0 0 .187.087.218.218 0 0 0 .188-.074.62.62 0 0 0 .056-.324v-.128h.565v.147a.92.92 0 0 1-.206.656.816.816 0 0 1-.612.218zm.257-2.052v-.1a1.886 1.886 0 0 0-.058-.5.21.21 0 0 0-.183-.077.219.219 0 0 0-.187.077 1.885 1.885 0 0 0-.058.5v.1zm-2.1 2.06a.644.644 0 0 1-.3-.067.731.731 0 0 1-.241-.2v.227h-.57v-4.279h.536v1.294a1.085 1.085 0 0 1 .274-.206.547.547 0 0 1 .263-.071.481.481 0 0 1 .409.192.92.92 0 0 1 .14.552v1.908a.77.77 0 0 1-.131.481.468.468 0 0 1-.381.167zm-.017-2.527a.4.4 0 0 0-.108-.227.217.217 0 0 0-.177-.075.269.269 0 0 0-.121.028.578.578 0 0 0-.15.089v2.109a.6.6 0 0 0 .169.1.284.284 0 0 0 .135.033.181.181 0 0 0 .153-.065.33.33 0 0 0 .1-.2v-1.795zm-2.193 2.133a1.441 1.441 0 0 1-.326.3.641.641 0 0 1-.328.093.344.344 0 0 1-.295-.131.641.641 0 0 1-.116-.393v-2.708h.547v2.508a.255.255 0 0 0 .035.15.142.142 0 0 0 .116.046.4.4 0 0 0 .191-.063.964.964 0 0 0 .209-.154v-2.487h.532v3.223h-.565v-.389zm-1.59.386h-.543V135h-.53v-.539h1.62V135h-.547v3.773zm2.425-7.03a.266.266 0 0 1-.206-.076.293.293 0 0 1-.073-.215v-1.5a.228.228 0 0 1 .077-.179.288.288 0 0 1 .2-.07.242.242 0 0 1 .183.07.222.222 0 0 1 .083.179v1.5a.289.289 0 0 1-.081.215.232.232 0 0 1-.184.073z" class="cls-1" data-name="Path 309" transform="translate(-122.069 -122.069)"/>
    </g>
</svg>
