<svg xmlns="http://www.w3.org/2000/svg" width="33" height="33" viewBox="0 0 33 33">
    <defs>
        <style>
            .cls-1{fill:#fff}
        </style>
    </defs>
    <g id="twitter-circular-button">
        <g id="Group_58" data-name="Group 58">
            <path id="Path_294" d="M157.218 169.094c0-.167 0-.332-.01-.5a7.494 7.494 0 0 0 1.82-1.956 6.987 6.987 0 0 1-2.094.573 3.742 3.742 0 0 0 1.6-2.094 7 7 0 0 1-2.315.893 3.627 3.627 0 0 0-2.661-1.256 3.683 3.683 0 0 0-3.645 3.8 4.05 4.05 0 0 0 .095.88 10.265 10.265 0 0 1-7.515-4.152 4.089 4.089 0 0 0 1.128 5.208 3.489 3.489 0 0 1-1.651-.506v.05a3.872 3.872 0 0 0 2.925 3.837 3.455 3.455 0 0 1-.96.131 3.33 3.33 0 0 1-.686-.075 3.705 3.705 0 0 0 3.4 2.714 7.036 7.036 0 0 1-4.527 1.648 6.951 6.951 0 0 1-.87-.055 9.835 9.835 0 0 0 5.589 1.752c6.711.005 10.377-5.83 10.377-10.892z" class="cls-1" data-name="Path 294" transform="translate(-133.642 -155.874)"/>
            <path id="Path_295" d="M33 16.5A16.5 16.5 0 1 0 16.5 33 16.5 16.5 0 0 0 33 16.5zm-31.5 0a15 15 0 1 1 15 15 15 15 0 0 1-15-15z" class="cls-1" data-name="Path 295"/>
        </g>
    </g>
</svg>
